HIERARCHY
ROOT Hips
{
	OFFSET -0.001795 -0.223333 0.028219
	CHANNELS 6 Xposition Yposition Zposition Zrotation Yrotation Xrotation 
	JOINT LeftUpLeg
	{
		OFFSET 0.069520 -0.091406 -0.006815
		CHANNELS 3 Zrotation Yrotation Xrotation
		JOINT LeftLeg
		{
			OFFSET 0.034277 -0.375199 -0.004496
			CHANNELS 3 Zrotation Yrotation Xrotation
			JOINT LeftFoot
			{
				OFFSET -0.013596 -0.397961 -0.043693
				CHANNELS 3 Zrotation Yrotation Xrotation
				JOINT LeftToe
				{
					OFFSET 0.026358 -0.055791 0.119288
					CHANNELS 3 Zrotation Yrotation Xrotation
					End Site
					{
						OFFSET 0.000000 0.000000 0.000000
					}
				}
			}
		}
	}
	JOINT RightUpLeg
	{
		OFFSET -0.067670 -0.090522 -0.004320
		CHANNELS 3 Zrotation Yrotation Xrotation
		JOINT RightLeg
		{
			OFFSET -0.038290 -0.382569 -0.008850
			CHANNELS 3 Zrotation Yrotation Xrotation
			JOINT RightFoot
			{
				OFFSET 0.015774 -0.398415 -0.042312
				CHANNELS 3 Zrotation Yrotation Xrotation
				JOINT RightToe
				{
					OFFSET -0.025372 -0.048144 0.123348
					CHANNELS 3 Zrotation Yrotation Xrotation
					End Site
					{
						OFFSET 0.000000 0.000000 0.000000
					}
				}
			}
		}
	}
	JOINT Spine
	{
		OFFSET -0.002533 0.108963 -0.026696
		CHANNELS 3 Zrotation Yrotation Xrotation
		JOINT Spine1
		{
			OFFSET 0.005487 0.135180 0.001092
			CHANNELS 3 Zrotation Yrotation Xrotation
			JOINT Spine2
			{
				OFFSET 0.001457 0.052922 0.025425
				CHANNELS 3 Zrotation Yrotation Xrotation
				JOINT Neck
				{
					OFFSET -0.002778 0.213870 -0.042857
					CHANNELS 3 Zrotation Yrotation Xrotation
					JOINT Head
					{
						OFFSET 0.005152 0.064970 0.051349
						CHANNELS 3 Zrotation Yrotation Xrotation
						End Site
						{
							OFFSET 0.000000 0.000000 0.000000
						}
					}
				}
				JOINT LeftShoulder
				{
					OFFSET 0.078845 0.121749 -0.034090
					CHANNELS 3 Zrotation Yrotation Xrotation
					JOINT LeftArm
					{
						OFFSET 0.090977 0.030469 -0.008868
						CHANNELS 3 Zrotation Yrotation Xrotation
						JOINT LeftForeArm
						{
							OFFSET 0.259612 -0.012772 -0.027456
							CHANNELS 3 Zrotation Yrotation Xrotation
							JOINT LeftHand
							{
								OFFSET 0.249234 0.008986 -0.001171
								CHANNELS 3 Zrotation Yrotation Xrotation
								End Site
								{
									OFFSET 0.000000 0.000000 0.000000
								}
							}
						}
					}
				}
				JOINT RightShoulder
				{
					OFFSET -0.081759 0.118833 -0.038615
					CHANNELS 3 Zrotation Yrotation Xrotation
					JOINT RightArm
					{
						OFFSET -0.096012 0.032551 -0.009143
						CHANNELS 3 Zrotation Yrotation Xrotation
						JOINT RightForeArm
						{
							OFFSET -0.253742 -0.013329 -0.021401
							CHANNELS 3 Zrotation Yrotation Xrotation
							JOINT RightHand
							{
								OFFSET -0.255298 0.007772 -0.005559
								CHANNELS 3 Zrotation Yrotation Xrotation
								End Site
								{
									OFFSET 0.000000 0.000000 0.000000
								}
							}
						}
					}
				}
			}
		}
	}
}
MOTION
Frames: 8
Frame Time: 0.050000
-0.174472 0.937723 -0.429541 -3.604089 36.688974 3.461895 11.038074 -2.099639 -20.229605 1.574626 -3.286140 22.981986 -6.498191 -0.232202 14.410221 0.000000 0.000000 0.000000 4.819144 1.391218 -13.152158 -1.786982 -0.021886 11.636835 -4.076015 -9.477703 4.183550 0.000000 0.000000 0.000000 -4.411643 -0.043071 4.345247 0.914491 1.131251 -17.118406 -0.675831 -2.353863 7.285691 0.193613 2.848428 -14.500797 0.000000 0.000000 0.000000 2.070435 -11.308592 3.536695 8.296125 -61.061681 -12.875803 94.999236 -9.781708 -15.719686 0.000000 0.000000 0.000000 -20.465832 18.650123 1.829949 -33.999264 53.939510 -12.642647 -82.409319 -12.467773 15.593266 0.000000 0.000000 0.000000 
-0.172560 0.937186 -0.430542 -3.615112 36.913966 3.375755 11.177357 -2.025265 -19.535910 0.706640 -3.205296 23.624542 -4.807760 -0.935825 9.822973 0.000000 0.000000 0.000000 4.263912 1.308712 -12.756766 -1.024677 -0.195059 11.134858 -4.119541 -9.629712 4.033305 0.000000 0.000000 0.000000 -4.308561 -0.050819 4.458094 0.027207 1.367791 -17.056859 0.283260 -1.758811 7.075264 1.412102 2.145087 -14.394784 0.000000 0.000000 0.000000 1.715381 -11.449773 3.488369 8.008068 -62.776668 -13.427841 95.826223 -8.468641 -14.534827 0.000000 0.000000 0.000000 -22.392393 19.931921 1.543916 -37.191914 56.211761 -14.503784 -81.506080 -15.777101 17.662220 0.000000 0.000000 0.000000 
-0.168876 0.936108 -0.432174 -3.748164 37.518313 3.628563 11.346292 -2.052969 -19.494400 0.167334 -3.151884 23.906226 -3.958352 -2.017753 6.722711 0.000000 0.000000 0.000000 4.325616 1.316313 -13.041672 -1.372323 -0.122933 11.162756 -4.363205 -10.209342 3.909391 0.000000 0.000000 0.000000 -3.803788 -0.041459 3.728152 -0.950386 1.614987 -15.132026 0.780114 -0.844754 5.122844 2.415410 1.393372 -13.425499 0.000000 0.000000 0.000000 2.285087 -12.239103 3.812380 8.948771 -64.174597 -14.652042 94.597586 -7.456300 -13.286652 0.000000 0.000000 0.000000 -20.109448 20.557999 2.349606 -39.660414 60.116461 -17.444140 -80.933310 -13.998231 15.721223 0.000000 0.000000 0.000000 
-0.163360 0.935067 -0.434252 -3.896047 38.197126 3.545159 11.605583 -2.047537 -19.143005 -0.514842 -2.855289 23.177591 -3.958146 -2.799826 5.840382 0.000000 0.000000 0.000000 3.972975 1.261011 -13.023733 -1.170910 -0.217472 11.382558 -4.595507 -10.785684 3.778439 0.000000 0.000000 0.000000 -4.095759 -0.037302 3.608171 -0.934428 1.601310 -14.354455 1.302004 -1.283847 4.719419 2.002794 1.742118 -14.040144 0.000000 0.000000 0.000000 2.606989 -12.345569 3.901815 10.919526 -64.257168 -15.820110 93.761239 -6.331895 -11.855671 0.000000 0.000000 0.000000 -18.092816 21.569100 3.202322 -40.426982 62.410852 -19.366592 -82.700337 -12.191379 14.488444 0.000000 0.000000 0.000000 
-0.156201 0.934832 -0.436039 -3.996174 39.916128 3.756648 11.490654 -2.136613 -19.210476 -0.673095 -2.715535 22.285570 -4.423372 -4.305794 5.169522 0.000000 0.000000 0.000000 3.874211 1.219857 -13.108428 -1.571812 -0.176643 11.507579 -5.285409 -12.241139 4.192063 0.000000 0.000000 0.000000 -4.353458 -0.036457 3.582441 -0.372450 1.465840 -14.286928 1.456720 -2.018484 4.511383 1.427887 2.094035 -13.875048 0.000000 0.000000 0.000000 3.391480 -12.938751 4.203047 17.129343 -64.076516 -19.670352 91.316138 -3.665425 -8.658050 0.000000 0.000000 0.000000 -15.442014 21.695969 3.999513 -38.716994 64.109451 -19.537881 -86.825406 -9.833011 13.660914 0.000000 0.000000 0.000000 
-0.148100 0.935209 -0.437254 -4.164411 40.285334 4.395221 11.542620 -2.136311 -18.901221 -1.041379 -2.328743 20.693620 -4.369628 -4.866160 4.501384 0.000000 0.000000 0.000000 3.505347 1.176372 -13.900525 -1.522044 -0.241503 11.966203 -5.447159 -12.378624 4.666449 0.000000 0.000000 0.000000 -5.077201 -0.025101 3.468188 0.868092 1.117753 -14.726729 1.554729 -2.395093 4.183990 1.373025 2.318436 -15.130987 0.000000 0.000000 0.000000 4.624472 -12.450262 4.316334 24.738163 -63.147772 -24.034247 90.052755 -1.352055 -6.025810 0.000000 0.000000 0.000000 -14.177045 21.048852 4.215937 -39.718355 64.719599 -20.625650 -90.212945 -10.965312 15.617023 0.000000 0.000000 0.000000 
-0.139960 0.935974 -0.438188 -4.147125 40.713213 5.086062 11.343767 -2.131104 -18.601095 -1.276954 -2.020686 19.219051 -4.450579 -5.436669 4.100471 0.000000 0.000000 0.000000 3.118229 1.114066 -14.066398 -1.638132 -0.179807 11.482367 -5.667715 -12.636223 5.251180 0.000000 0.000000 0.000000 -5.673135 -0.019135 3.687552 2.007301 0.824594 -15.756612 1.665474 -2.786456 4.736564 1.189356 2.553326 -15.857208 0.000000 0.000000 0.000000 6.897636 -11.483414 4.536626 33.735790 -61.122845 -28.835190 90.132560 4.265593 -0.513914 0.000000 0.000000 0.000000 -14.425740 19.771870 3.723842 -42.444891 64.250879 -21.867283 -93.250360 -13.972229 19.381483 0.000000 0.000000 0.000000 
-0.132649 0.936759 -0.439007 -4.601050 40.456925 5.409954 11.519307 -2.077935 -18.072632 -1.469694 -1.720423 17.768850 -4.237734 -5.476720 3.650535 0.000000 0.000000 0.000000 3.112281 1.123398 -14.432314 -1.702845 -0.139887 11.343401 -5.617924 -12.285357 5.847845 0.000000 0.000000 0.000000 -5.927025 -0.014424 4.090728 2.844520 0.585798 -16.399463 2.206091 -3.278364 4.540439 1.350241 2.571217 -17.064879 0.000000 0.000000 0.000000 8.513745 -10.468447 4.607383 39.638074 -59.235492 -31.290457 89.998230 8.423000 3.750480 0.000000 0.000000 0.000000 -14.974011 19.415661 3.501619 -47.103111 64.228964 -24.748096 -95.240595 -18.327637 24.125886 0.000000 0.000000 0.000000 
